<svg version="1.0" xmlns="http://www.w3.org/2000/svg" width="152.000000pt" height="148.000000pt" viewBox="0 0 152.000000 148.000000" preserveAspectRatio="xMidYMid meet">
  <rect width="100%" height="100%" fill="#ffffff"/>
  <g transform="translate(0.000000,148.000000) scale(0.100000,-0.100000)" fill="#000000" stroke="none">
    <path d="M1 1338 c1 -107 3 -133 10 -105 24 101 101 193 191 229 l43 17 -122
0 -123 1 1 -142z"/>
    <path d="M1325 1460 c88 -40 161 -130 184 -227 7 -28 9 -2 10 105 l1 142 -117
-1 -118 0 40 -19z"/>
    <path d="M643 1256 c-188 -43 -350 -198 -398 -381 -17 -68 -19 -189 -4 -255
38 -165 167 -311 336 -378 60 -23 81 -26 183 -26 97 0 125 4 180 25 168 64
292 197 336 361 17 67 18 208 0 273 -44 167 -178 309 -345 365 -82 27 -207 34
-288 16z m37 -57 c-41 -22 -91 -53 -110 -68 -68 -53 -71 -48 -23 36 28 49 76
69 168 72 l40 1 -75 -41z m244 17 c25 -11 42 -28 60 -65 15 -28 26 -53 26 -56
0 -3 -23 12 -52 32 -28 21 -83 55 -122 76 l-71 38 62 -5 c35 -3 78 -12 97 -20z
m-174 -51 c0 -30 -4 -35 -27 -41 -25 -5 -133 -37 -173 -50 -8 -3 1 8 20 25 32
28 156 100 173 101 4 0 7 -16 7 -35z m88 6 c55 -28 183 -119 152 -108 -58 21
-170 56 -192 61 -24 6 -28 11 -28 41 0 19 2 35 5 35 3 0 31 -13 63 -29z m-347
-57 l-30 -58 -10 27 c-6 16 -11 34 -11 41 0 11 71 58 78 52 2 -2 -10 -30 -27
-62z m554 44 c37 -25 44 -51 22 -82 -12 -17 -16 -14 -38 35 -13 30 -25 57 -27
62 -6 12 7 8 43 -15z m-617 -83 c18 -40 15 -45 -28 -45 -46 0 -51 13 -18 47
27 29 32 29 46 -2z m322 -46 c0 -69 -1 -71 -22 -65 -13 4 -61 16 -108 28 -47
12 -92 23 -100 25 -21 6 27 31 115 59 114 37 115 37 115 -47z m110 52 c112
-32 176 -71 116 -71 -13 0 -63 -11 -110 -25 -47 -14 -88 -25 -91 -25 -3 0 -5
32 -5 70 0 49 4 70 13 70 6 0 41 -8 77 -19z m282 -8 c15 -15 28 -30 28 -35 0
-4 -20 -8 -45 -8 -25 0 -45 2 -45 4 0 11 23 66 28 66 3 0 19 -12 34 -27z
m-722 -69 c0 -3 -14 -25 -31 -50 -16 -24 -44 -74 -61 -111 l-31 -66 -19 23
c-23 28 -18 59 22 148 l29 62 45 0 c26 0 46 -3 46 -6z m800 -56 c42 -89 46
-118 22 -148 l-20 -25 -12 30 c-18 48 -60 127 -86 162 -13 17 -24 34 -24 37 0
3 20 6 46 6 l45 0 29 -62z m-600 21 c40 -11 80 -23 87 -27 8 -5 -9 -23 -53
-55 -35 -26 -68 -47 -72 -47 -8 0 -82 131 -82 144 0 11 45 6 120 -15z m373
-46 c-20 -38 -40 -72 -44 -77 -5 -6 -38 11 -79 39 -55 38 -67 51 -56 57 24 13
157 47 188 47 l28 1 -37 -67z m-477 -29 l45 -78 -38 -33 c-21 -18 -51 -43 -67
-55 l-29 -21 5 89 c6 85 26 190 35 180 3 -2 25 -39 49 -82z m571 -89 l6 -100
-64 55 c-35 30 -66 55 -68 56 -2 2 6 15 17 31 11 15 32 52 48 82 l28 54 14
-39 c7 -21 16 -84 19 -139z m-672 70 c-8 -44 -14 -99 -15 -122 0 -24 -3 -43
-6 -43 -5 0 -46 26 -73 46 -5 4 57 134 82 171 12 17 23 31 24 30 1 -2 -4 -39
-12 -82z m744 -20 c45 -94 45 -97 6 -122 -19 -13 -37 -23 -40 -23 -3 0 -5 19
-5 43 0 40 -15 150 -26 192 -9 35 33 -23 65 -90z m-409 -105 c0 -88 -2 -160
-3 -160 -9 0 -148 211 -145 220 4 13 121 99 136 99 9 1 12 -37 12 -159z m112
110 l67 -50 -65 -97 c-101 -150 -94 -152 -94 35 0 123 3 162 13 162 6 -1 42
-23 79 -50z m-251 -122 c18 -29 51 -77 72 -106 21 -30 37 -56 34 -58 -7 -8
-236 82 -267 104 -6 4 111 111 121 112 4 0 22 -24 40 -52z m404 -2 c33 -30 58
-56 55 -59 -16 -16 -259 -111 -266 -104 -4 4 139 216 146 217 3 0 32 -24 65
-54z m-737 31 c13 -16 4 -163 -9 -150 -5 5 -12 44 -15 86 -7 76 0 94 24 64z
m992 -29 c0 -54 -11 -118 -19 -118 -4 0 -8 17 -9 38 -1 20 -5 49 -8 64 -5 25
10 57 29 58 4 0 7 -19 7 -42z m-904 -42 l35 -23 -48 -57 -48 -57 -3 38 c-5 51
7 123 19 123 6 0 26 -11 45 -24z m849 -9 c4 -17 5 -54 3 -81 l-3 -49 -46 59
-47 60 37 21 c47 29 49 29 56 -10z m-633 -94 c136 -55 134 -63 -16 -66 l-89
-2 -18 50 c-21 61 -23 79 -6 71 6 -3 65 -27 129 -53z m493 25 c-4 -18 -14 -48
-21 -67 l-14 -34 -97 7 c-54 4 -104 11 -111 15 -9 5 17 19 75 40 48 18 104 41
123 51 48 26 53 25 45 -12z m-648 -20 c6 -24 14 -51 18 -60 6 -16 0 -18 -60
-18 -39 0 -65 4 -63 10 5 15 82 110 89 110 3 0 10 -19 16 -42z m733 -11 c22
-30 40 -57 40 -60 0 -4 -29 -7 -64 -7 l-65 0 15 48 c9 26 17 53 20 60 6 19 11
15 54 -41z m-451 -84 c-31 -42 -114 -123 -126 -123 -14 0 -82 88 -83 108 0 8
19 12 63 13 34 0 80 4 102 8 59 13 59 13 44 -6z m214 0 c48 -3 90 -10 93 -14
6 -11 -6 -34 -44 -81 l-29 -37 -41 35 c-57 48 -114 121 -87 110 11 -4 60 -10
108 -13z m-488 -13 c25 0 36 -9 63 -52 18 -28 31 -53 29 -55 -13 -12 -197 90
-197 109 0 5 16 7 38 4 20 -3 51 -6 67 -6z m315 -65 l0 -75 -32 0 c-18 0 -50
3 -71 6 l-38 7 68 68 c38 38 69 69 71 69 1 0 2 -34 2 -75z m123 -68 c-21 -4
-51 -7 -68 -5 l-30 3 -3 75 -3 75 71 -70 71 -70 -38 -8z m312 133 c9 -15 -177
-121 -190 -108 -2 1 11 26 28 55 29 47 36 52 72 55 72 6 85 6 90 -2z m-764
-94 c24 -13 63 -30 87 -37 l44 -13 -24 -18 c-13 -9 -28 -18 -34 -18 -11 0
-134 109 -123 110 4 0 26 -11 50 -24z m675 -31 c-33 -30 -64 -55 -70 -55 -6 0
-21 9 -34 18 l-24 18 44 13 c24 7 63 24 88 37 25 13 47 23 50 23 3 0 -22 -24
-54 -54z m-495 -52 c8 -9 32 -29 53 -45 46 -33 31 -36 -48 -8 -77 26 -80 29
-60 51 21 23 37 24 55 2z m147 -31 l3 -43 -28 14 c-15 8 -46 29 -68 47 l-39
31 64 -3 65 -3 3 -43z m125 25 c-52 -43 -90 -66 -97 -60 -8 8 -8 68 1 76 3 4
33 7 65 7 l60 0 -29 -23z m101 4 c20 -22 17 -25 -60 -51 -79 -28 -94 -25 -48
8 21 16 45 36 53 45 18 22 34 21 55 -2z"/>
    <path d="M1 143 l-1 -143 118 0 117 1 -48 23 c-87 43 -146 115 -172 209 -14
52 -14 51 -14 -90z"/>
    <path d="M1510 258 c0 -37 -55 -140 -93 -176 -19 -19 -57 -44 -83 -58 l-49
-23 118 -1 117 0 0 140 c0 77 -2 140 -5 140 -3 0 -5 -10 -5 -22z"/>
  </g>
</svg>
