<?xml version="1.0" encoding="UTF-8"?>
<svg version="1.1" xmlns="http://www.w3.org/2000/svg" width="150" height="141">
<path d="M0 0 C8.42820764 5.02871773 12.95710994 16.17408357 17.5 24.5 C22.07979679 32.78884384 26.74237745 41.01038672 31.625 49.125 C32.13442139 49.97304199 32.64384277 50.82108398 33.16870117 51.69482422 C35.22376932 55.36015957 35.22376932 55.36015957 37.8125 58.625 C40.94105074 54.21374346 43.78054491 49.99444144 45.75 44.9375 C47.77404003 40.21198613 50.32015412 37.17980739 54.8125 34.625 C60.8137343 32.3000185 65.87876049 32.16928715 71.8515625 34.58984375 C81.36356149 39.61111812 86.68359593 52.68213919 91.77148438 61.66259766 C92.80786809 63.49182463 93.84880188 65.31839779 94.890625 67.14453125 C96.87703805 70.63108051 98.84600432 74.12717723 100.8125 77.625 C101.40603271 78.67051025 101.99956543 79.71602051 102.61108398 80.79321289 C103.15063721 81.75735107 103.69019043 82.72148926 104.24609375 83.71484375 C104.71845459 84.55394287 105.19081543 85.39304199 105.67749023 86.25756836 C108.1956681 91.51004648 108.47102291 96.35948119 106.6875 101.875 C104.31027215 107.3102073 100.18782114 111.18167221 94.8125 113.625 C89.55996099 114.93561434 84.7909052 115.09210925 79.78515625 112.8828125 C72.06461572 107.9600124 67.75076161 99.60594682 63.8125 91.625 C61.10347989 94.75079243 58.95297165 98.00256407 56.875 101.5625 C49.90325282 113.30438999 49.90325282 113.30438999 42.8125 115.625 C35.65891714 116.53307117 30.6856152 116.18500666 24.66015625 112.12841797 C21.8265482 109.82274165 20.02662479 107.0714775 18.25 103.9375 C17.84418701 103.25671387 17.43837402 102.57592773 17.02026367 101.87451172 C15.59649096 99.46981286 14.20417731 97.04840678 12.8125 94.625 C11.66463869 92.65200842 10.51616678 90.67937199 9.3671875 88.70703125 C6.15498757 83.17453126 2.96930013 77.62716253 -0.20996094 72.07568359 C-3.46328061 66.39884159 -6.73127441 60.73048098 -10 55.0625 C-10.62108643 53.98427979 -11.24217285 52.90605957 -11.88208008 51.79516602 C-15.97248537 44.70247844 -20.09942281 37.63254531 -24.30786133 30.60913086 C-27.97568192 24.44128544 -28.92494806 19.72557133 -28.1875 12.625 C-26.57553667 7.01226023 -23.69674456 3.70568406 -18.87109375 0.53515625 C-13.18194665 -2.54041515 -5.91563676 -2.46099732 0 0 Z " fill="#4756EC" transform="translate(34.1875,11.375)"/>
<path d="M0 0 C1.80859375 2.3203125 1.80859375 2.3203125 3.4375 5.125 C4.10394531 6.259375 4.77039063 7.39375 5.45703125 8.5625 C5.8432666 9.23667969 6.22950195 9.91085938 6.62744141 10.60546875 C8.2836883 13.49491549 9.96061651 16.37202655 11.63671875 19.25 C15.45110831 25.81831407 19.25244821 32.39327782 23 39 C23.58031982 40.01908447 24.16063965 41.03816895 24.75854492 42.08813477 C25.29842041 43.05291748 25.8382959 44.0177002 26.39453125 45.01171875 C26.87253174 45.86209717 27.35053223 46.71247559 27.84301758 47.58862305 C30.3727791 52.8611393 30.66659781 57.70950968 28.875 63.25 C26.49777215 68.6852073 22.37532114 72.55667221 17 75 C11.74746099 76.31061434 6.9784052 76.46710925 1.97265625 74.2578125 C-5.74788428 69.3350124 -10.06173839 60.98094682 -14 53 C-16.22191648 55.69804144 -18.25941339 58.39282599 -20.1875 61.3125 C-20.785625 62.199375 -21.38375 63.08625 -22 64 C-22.33 64 -22.66 64 -23 64 C-22.9779248 63.30052246 -22.95584961 62.60104492 -22.93310547 61.88037109 C-23.12575459 52.15716312 -27.1093601 45.57435595 -32.125 37.625 C-33.28160696 35.77684348 -34.4304644 33.92551151 -35.55953979 32.06039429 C-36.57575928 30.38322326 -37.61749235 28.72158875 -38.66064453 27.06103516 C-40.23237476 23.46891821 -40.06250948 21.72296102 -39 18 C-37.94921875 16.19921875 -37.94921875 16.19921875 -36.6875 14.6875 C-34.62438605 12.03072648 -33.3400144 9.57234235 -32.125 6.4375 C-29.8078613 1.00612689 -26.46826146 -2.40743096 -21.0859375 -4.87890625 C-13.19285713 -7.37890581 -6.38745515 -4.85209077 0 0 Z " fill="#2BE1EF" transform="translate(112,50)"/>
<path d="M0 0 C0.33 0 0.66 0 1 0 C0.99842896 0.87833496 0.99842896 0.87833496 0.99682617 1.77441406 C1.34046334 9.65413023 4.30058947 15.08526264 8.3125 21.75 C8.89451172 22.75160156 9.47652344 23.75320312 10.07617188 24.78515625 C12.41395335 28.7829479 14.75083525 32.7102985 17.48046875 36.453125 C19 39 19 39 18.96875 41.015625 C17.64800836 43.72101512 16.1330133 46.22016792 14.5 48.75 C13.8709375 49.73484375 13.241875 50.7196875 12.59375 51.734375 C12.0678125 52.48203125 11.541875 53.2296875 11 54 C10.67 54 10.34 54 10 54 C10.0220752 53.30052246 10.04415039 52.60104492 10.06689453 51.88037109 C9.87424541 42.15716312 5.8906399 35.57435595 0.875 27.625 C-0.28160696 25.77684348 -1.4304644 23.92551151 -2.55953979 22.06039429 C-3.57575928 20.38322326 -4.61749235 18.72158875 -5.66064453 17.06103516 C-7.23711729 13.45807937 -7.07976931 11.73251954 -6 8 C-4.625 5.6640625 -4.625 5.6640625 -3 3.625 C-2.46375 2.93664063 -1.9275 2.24828125 -1.375 1.5390625 C-0.92125 1.03117187 -0.4675 0.52328125 0 0 Z " fill="#E5EBF3" transform="translate(79,60)"/>
</svg>
