<!-- Save this as internet.svg inside your /icons folder -->
<svg xmlns="http://www.w3.org/2000/svg" viewBox="0 0 24 24" fill="#8be9fd" width="64" height="64">
  <path d="M12 2C6.48 2 2 6.48 2 12s4.48 10 10 10
           10-4.48 10-10S17.52 2 12 2zm6.93 6h-3.21a13.022 13.022 0 0 0-1.27-3.6
           A8.027 8.027 0 0 1 18.93 8zM12 4c.8 1.13 1.45 2.53 1.84 4H10.16
           C10.55 6.53 11.2 5.13 12 4zM4.07 8a8.027 8.027 0 0 1 4.48-3.6
           A13.022 13.022 0 0 0 7.27 8H4.07zM4 12c0-.68.07-1.34.18-2h3.64
           a16.6 16.6 0 0 0 0 4H4.18A8.06 8.06 0 0 1 4 12zm.07 4h3.21
           c.3 1.3.75 2.5 1.27 3.6A8.027 8.027 0 0 1 4.07 16zM12 20
           c-.8-1.13-1.45-2.53-1.84-4h3.68c-.39 1.47-1.04 2.87-1.84 4zm3.45-6
           c.05-.66.05-1.34 0-2s-.15-1.34-.27-2h-6.36a13.75 13.75 0 0 0 0 4h6.36
           c.12-.66.22-1.34.27-2zm.48 6a13.022 13.022 0 0 0 1.27-3.6h3.21
           a8.027 8.027 0 0 1-4.48 3.6zm1.27-5.6a16.6 16.6 0 0 0 0-4h3.64
           c.12.66.18 1.32.18 2s-.06 1.34-.18 2h-3.64z"/>
</svg>